<svg xmlns="http://www.w3.org/2000/svg" xmlns:xlink="http://www.w3.org/1999/xlink" width="53.08" height="34.898" viewBox="0 0 53.08 34.898"><defs><style>.a{fill:none;}.b{clip-path:url(#a);}.c{fill:url(#b);}.d{clip-path:url(#c);}.e{fill:url(#d);}.f{fill:#00eab6;}.g{clip-path:url(#e);}.h{fill:url(#f);}.i{clip-path:url(#g);}.j{fill:url(#h);}.k{clip-path:url(#i);}.l{fill:url(#j);}</style><clipPath id="a"><path class="a" d="M297.247-1003.271l-.552.114v17.077l10.277-2.12v-2.687l-7.516,1.55V-1001.5a1.744,1.744,0,0,0-.65-1.435h0a1.715,1.715,0,0,0-1.1-.381h0a2.286,2.286,0,0,0-.461.049" transform="translate(-296.695 1003.321)"/></clipPath><linearGradient id="b" x1="0.793" y1="0.221" x2="0.907" y2="0.221" gradientUnits="objectBoundingBox"><stop offset="0" stop-color="#0083d6"/><stop offset="0.1" stop-color="#0082d6"/><stop offset="0.2" stop-color="#0081d6"/><stop offset="0.3" stop-color="#007ed3"/><stop offset="0.4" stop-color="#0077cd"/><stop offset="0.5" stop-color="#006bc4"/><stop offset="0.6" stop-color="#0058b5"/><stop offset="0.7" stop-color="#003d9f"/><stop offset="0.8" stop-color="#001881"/><stop offset="0.9" stop-color="#00145f"/><stop offset="1" stop-color="#00124b"/></linearGradient><clipPath id="c"><path class="a" d="M362.92-1030.683l-5.275,1.088v15.649l-8.053-14.658-8.713,19.4v-.209a1.823,1.823,0,0,0-2.3-1.839h0L332.523-1010v-4.668l4.489-.926a2.522,2.522,0,0,0,1.473-.928h0a2.519,2.519,0,0,0,.6-1.608h0v-.555l-6.562,1.353v-4.417l6.037-1.245a2.918,2.918,0,0,0,2.251-2.728h0v-.4l-11.049,2.279v17.076l14.087-2.882,5.72-12.8,5.744,10.431,7.609-1.592a11.34,11.34,0,0,0,4.482-2h0a11.348,11.348,0,0,0,3.242-3.711h0a9.7,9.7,0,0,0,1.207-4.7h0a7.237,7.237,0,0,0-1.144-4.1h0a6.079,6.079,0,0,0-3.187-2.4h0a7.664,7.664,0,0,0-2.469-.387h0a10.559,10.559,0,0,0-2.131.229m-2.514,3.2,2.423-.5a6.282,6.282,0,0,1,3.3.085h0a4,4,0,0,1,2.135,1.643h0a5.2,5.2,0,0,1,.756,2.858h0a6.85,6.85,0,0,1-.765,3.179h0a7.283,7.283,0,0,1-2.156,2.507h0a8.163,8.163,0,0,1-3.248,1.427h0l-2.446.5Z" transform="translate(-329.761 1030.912)"/></clipPath><linearGradient id="d" x1="0.793" y1="0.26" x2="0.907" y2="0.26" xlink:href="#b"/><clipPath id="e"><path class="a" d="M375.008-989.552l-2.863,4.5,5.744-5.673,5.72,3.309-2.877-3.329-2.843-3.325Z" transform="translate(-372.145 994.074)"/></clipPath><linearGradient id="f" x1="0.187" y1="0.09" x2="0.204" y2="0.09" gradientUnits="objectBoundingBox"><stop offset="0" stop-color="#00127e"/><stop offset="0.1" stop-color="#0055b3"/><stop offset="0.2" stop-color="#00379b"/><stop offset="0.3" stop-color="#00258d"/><stop offset="0.4" stop-color="#001b85"/><stop offset="0.5" stop-color="#001681"/><stop offset="0.6" stop-color="#00147f"/><stop offset="0.7" stop-color="#00137f"/><stop offset="0.8" stop-color="#00137f"/><stop offset="0.9" stop-color="#00137f"/><stop offset="1" stop-color="#00127e"/></linearGradient><clipPath id="g"><path class="a" d="M396.432-969.7l-3.965.795v13.675l2.208-2.173v-4.268c.644-.1,1.8-.318,1.8-.318h0v0h0l.059-.008h0l.019,0a5.953,5.953,0,0,0,2.27-.971h0a4.759,4.759,0,0,0,1.46-1.651h0a4.338,4.338,0,0,0,.5-2.022h0a3.459,3.459,0,0,0-.479-1.825h0a2.754,2.754,0,0,0-1.53-1.174h0a3.7,3.7,0,0,0-1.18-.18h0a5.923,5.923,0,0,0-1.159.125m-1.757,2.552,1.885-.378a4.078,4.078,0,0,1,.79-.089h0a1.2,1.2,0,0,1,.773.2h0a1.234,1.234,0,0,1,.418,1.021h0a1.982,1.982,0,0,1-.226.906h0a2.34,2.34,0,0,1-.728.817h0a3.279,3.279,0,0,1-1.307.534h0l-1.28.257c-.063.012-.2.029-.326.044h0Z" transform="translate(-392.467 969.825)"/></clipPath><linearGradient id="h" x1="0.176" y1="0.461" x2="0.195" y2="0.461" gradientUnits="objectBoundingBox"><stop offset="0" stop-color="#00cab8"/><stop offset="0.1" stop-color="#00d7b7"/><stop offset="0.2" stop-color="#00dfb6"/><stop offset="0.3" stop-color="#00e4b6"/><stop offset="0.4" stop-color="#00e7b6"/><stop offset="0.5" stop-color="#00e8b6"/><stop offset="0.6" stop-color="#00e9b6"/><stop offset="0.7" stop-color="#00e9b6"/><stop offset="0.8" stop-color="#00e9b6"/><stop offset="0.9" stop-color="#00e9b6"/><stop offset="1" stop-color="#00e9b6"/></linearGradient><clipPath id="i"><path class="a" d="M389.355-1017.809l5.744,10.431,3.044-.637-8.764-15.952Z" transform="translate(-389.355 1023.967)"/></clipPath><linearGradient id="j" x1="0.151" y1="0.504" x2="0.189" y2="0.504" xlink:href="#h"/></defs><g transform="translate(-260.695 -16.568)"><g class="b" transform="translate(260.695 25.738)"><g transform="translate(-78.615 446.775) rotate(-100.008)"><path class="c" d="M467.646,62.221,352.588,714.216,0,651.995,115.058,0Z" transform="translate(0)"/></g></g><g class="d" transform="translate(271.685 16.568)"><g transform="translate(-89.605 455.945) rotate(-100.008)"><path class="e" d="M467.646,62.221,352.588,714.216,0,651.995,115.058,0Z" transform="translate(0 0)"/></g></g><g transform="translate(282.724 18.876)"><g transform="translate(0)"><path class="f" d="M-17.66,0l-8.792,19.577,3.048-.624,5.72-12.8,5.744,10.431,3.044-.637Z" transform="translate(26.452)"/></g></g><g class="g" transform="translate(285.772 28.812)"><g transform="translate(-123.688 -27.641)"><path class="h" d="M-372.145-96.732H289.924V261.3H-372.145Z" transform="translate(372.145 96.732)"/></g></g><g class="i" transform="translate(292.526 36.871)"><g transform="translate(22.138 -314.516) rotate(28.689)"><path class="j" d="M0,317.834,580.79,0,752.67,314.082,171.879,631.916Z" transform="translate(0 0)"/></g></g><g class="k" transform="translate(291.492 18.876)"><g transform="translate(124.765 -339.694) rotate(38.287)"><path class="l" d="M0,410.22,519.669,0l221.84,281.028L221.84,691.248Z"/></g></g><g transform="translate(282.391 35.858)"><path class="f" d="M-7.054-30.554a3.276,3.276,0,0,1-2.294-.828,4.29,4.29,0,0,1-1.217-3.31V-41.8l2.208-.44v7.279a2.337,2.337,0,0,0,.581,1.867,1.58,1.58,0,0,0,1.027.324h0a3.137,3.137,0,0,0,.615-.066,2.729,2.729,0,0,0,1.747-1.04,3.556,3.556,0,0,0,.62-2.166v-7.537l2.208-2.187v9.427A5.971,5.971,0,0,1-2.713-32.6a5.239,5.239,0,0,1-3.233,1.924,5.671,5.671,0,0,1-1.108.118" transform="translate(10.565 45.764)"/></g></g></svg>